<svg width="2172" height="724" viewBox="70 195 2030 340" xmlns="http://www.w3.org/2000/svg">
  <defs>
    <linearGradient id="bubbleGradient" x1="0" y1="0" x2="21720" y2="0" gradientUnits="userSpaceOnUse">
      <stop offset="0%"   stop-color="#3B01C9"/>
      <stop offset="18%"  stop-color="#5E00DE"/>
      <stop offset="34%"  stop-color="#8A00EE"/>
      <stop offset="41%"  stop-color="#A707FC"/>
      <stop offset="48%"  stop-color="#7A03F2"/>
      <stop offset="53%"  stop-color="#004CFC"/>
      <stop offset="65%"  stop-color="#0080FC"/>
      <stop offset="77%"  stop-color="#01A6FE"/>
      <stop offset="85%"  stop-color="#02C8F4"/>
      <stop offset="94%"  stop-color="#02FAE9"/>
      <stop offset="100%" stop-color="#12FFDC"/>
    </linearGradient>

    <linearGradient id="shadeOverlay" x1="0" y1="0" x2="0" y2="724" gradientUnits="userSpaceOnUse">
      <stop offset="0%"   stop-color="#FFFFFF" stop-opacity="0.55"/>
      <stop offset="12%"  stop-color="#FFFFFF" stop-opacity="0.15"/>
      <stop offset="45%"  stop-color="#000000" stop-opacity="0"/>
      <stop offset="80%"  stop-color="#000000" stop-opacity="0.10"/>
      <stop offset="100%" stop-color="#000000" stop-opacity="0.32"/>
    </linearGradient>

    <filter id="dropShadow" x="-10%" y="-20%" width="120%" height="150%">
      <feDropShadow dx="0" dy="14" stdDeviation="10" flood-color="#1a0033" flood-opacity="0.28"/>
    </filter>

    <filter id="glossBlur" x="-50%" y="-50%" width="200%" height="200%">
      <feGaussianBlur stdDeviation="9"/>
    </filter>

    <clipPath id="letterClip">
      <path d="M12640 5180 c-178 -25 -308 -66 -449 -141 -128 -69 -178 -106 -290
-214 -198 -192 -313 -420 -361 -720 -8 -47 -12 -307 -13 -790 l0 -720 23 -59
c46 -120 143 -186 273 -186 109 0 204 58 255 155 26 50 27 52 33 340 4 160 7
293 8 297 1 4 238 9 529 10 526 3 527 3 577 26 105 48 165 143 165 260 0 71
-41 163 -93 209 -70 62 -85 63 -659 63 l-518 0 0 158 c0 186 10 237 75 369
120 245 406 398 678 364 173 -22 285 -78 407 -200 98 -98 147 -186 180 -317
18 -74 19 -124 22 -794 3 -709 3 -715 25 -762 45 -99 112 -154 215 -177 90
-21 212 21 274 93 71 83 69 54 69 896 0 746 0 756 -23 857 -59 267 -159 453
-342 634 -177 175 -403 292 -645 334 -109 20 -326 27 -415 15z M825 5116
c-104 -33 -186 -103 -228 -194 l-22 -47 0 -1140 0 -1140 26 -55 c33 -70 79
-116 149 -149 157 -73 355 15 405 181 13 44 15 154 15 752 0 386 4 707 9 714
9 16 49 -31 571 -672 213 -260 578 -700 673 -811 85 -99 113 -123 187 -158 56
-27 76 -32 145 -32 66 1 90 5 140 28 108 50 172 133 195 252 8 44 10 362 8
1155 l-3 1095 -24 52 c-47 105 -156 176 -271 177 -132 1 -225 -56 -282 -172
l-33 -67 4 -605 c1 -333 0 -660 -4 -728 l-7 -122 -36 47 c-20 27 -70 89 -112
139 -78 95 -129 158 -243 302 -37 48 -81 101 -97 117 -16 17 -46 53 -67 81
-21 29 -60 78 -88 111 -27 33 -106 129 -175 213 -69 85 -141 172 -161 194 -19
23 -46 57 -60 76 -13 19 -46 60 -74 90 -28 30 -70 83 -94 117 -46 66 -131 142
-191 173 -75 38 -183 49 -255 26z M5699 5095 c-60 -19 -133 -84 -167 -149
l-27 -51 0 -905 0 -905 27 -85 c59 -189 124 -296 251 -417 193 -183 448 -262
750 -234 174 16 336 46 396 71 129 56 191 205 145 348 -23 70 -63 115 -136
151 -53 27 -72 31 -140 31 -43 0 -120 -9 -171 -21 -54 -12 -130 -20 -183 -21
-120 0 -192 30 -264 110 -82 92 -85 107 -85 472 l0 315 375 5 c362 5 377 6
420 27 116 57 170 140 170 257 0 86 -29 155 -84 203 -79 70 -61 67 -491 73
l-390 5 -5 255 c-6 283 -10 304 -80 384 -70 79 -206 115 -311 81z M4185 4394
c-11 -2 -45 -9 -75 -15 -334 -67 -617 -297 -753 -613 -65 -152 -81 -229 -81
-396 0 -124 4 -159 27 -242 100 -374 377 -652 752 -755 93 -26 113 -28 280
-27 179 1 181 1 300 38 215 67 396 190 525 356 393 508 245 1214 -319 1527
-110 61 -242 107 -354 122 -74 10 -259 13 -302 5z m238 -569 c138 -29 261
-125 324 -253 35 -69 38 -83 41 -176 3 -84 0 -112 -18 -166 -67 -199 -234
-320 -443 -320 -137 0 -241 45 -335 144 -131 138 -162 340 -82 515 48 104 149
198 251 234 110 39 161 44 262 22z M9694 4360 c-239 -35 -447 -227 -511 -470
-20 -77 -22 -246 -3 -335 16 -80 79 -198 140 -267 54 -60 166 -134 254 -167
80 -30 188 -41 396 -41 188 0 189 0 219 -26 41 -34 44 -93 6 -128 l-25 -23
-378 -6 c-238 -3 -391 -9 -414 -16 -57 -18 -118 -70 -152 -131 -27 -48 -31
-64 -31 -130 0 -65 5 -83 31 -130 41 -71 117 -126 197 -141 37 -6 200 -9 440
-7 l382 3 88 31 c120 43 186 86 270 174 82 85 139 185 162 281 17 76 20 255 4
331 -31 148 -142 301 -274 381 -137 81 -173 89 -455 96 -211 5 -250 9 -273 23
-54 36 -58 94 -9 126 23 15 69 18 372 22 l345 5 63 29 c172 79 214 292 87 434
-36 39 -59 55 -107 71 -58 20 -82 21 -417 20 -196 -1 -379 -5 -407 -9z M7984
4340 c-72 -13 -210 -58 -269 -87 -159 -80 -318 -220 -413 -365 -92 -142 -152
-352 -152 -533 1 -437 264 -815 661 -950 173 -59 344 -68 675 -35 300 30 330
38 395 107 49 50 70 94 76 157 11 108 -47 220 -139 267 -70 36 -119 38 -312
18 -378 -39 -508 -22 -639 87 -81 66 -120 124 -149 217 -39 129 -11 304 63
400 47 61 131 126 202 156 54 23 76 26 172 26 104 0 114 -2 176 -32 66 -33
149 -109 149 -137 0 -25 -32 -30 -226 -33 -216 -3 -238 -9 -310 -75 -31 -29
-48 -55 -59 -91 -17 -58 -19 -136 -5 -188 14 -51 73 -114 135 -144 l54 -27
233 4 c198 4 245 8 311 26 240 66 390 218 420 425 24 167 -44 370 -174 525
-98 117 -262 215 -437 263 -88 23 -349 35 -438 19z M15050 4339 c-172 -22
-374 -124 -506 -254 -140 -139 -224 -289 -277 -495 -21 -82 -22 -102 -21 -551
1 -453 2 -467 23 -514 32 -72 62 -107 121 -139 78 -43 162 -47 234 -12 74 36
101 60 134 114 l27 47 5 470 c5 454 6 472 28 529 30 80 66 131 132 183 76 60
144 83 271 93 88 6 116 12 157 35 156 85 176 311 40 442 -61 58 -187 76 -368
52z M16370 4340 c-163 -11 -306 -59 -470 -156 -207 -123 -383 -383 -436 -643
-25 -128 -16 -364 20 -486 106 -357 381 -611 746 -687 110 -23 336 -27 510 -9
261 26 298 31 348 46 146 44 222 213 158 351 -56 121 -138 168 -288 166 -48
-1 -124 -6 -170 -12 -46 -6 -150 -13 -233 -16 -180 -8 -244 5 -350 69 -86 52
-142 119 -184 222 -31 75 -33 84 -29 181 3 94 6 107 42 177 52 103 90 144 178
195 156 89 344 88 470 -4 50 -36 106 -109 94 -122 -4 -4 -101 -10 -214 -13
-158 -4 -216 -9 -244 -22 -105 -45 -164 -135 -162 -247 1 -78 19 -123 71 -180
57 -64 107 -83 238 -88 153 -6 364 13 463 42 269 78 426 278 409 521 -14 195
-126 405 -278 522 -199 153 -411 212 -689 193z M18115 4321 c-309 -67 -550
-302 -636 -621 -23 -82 -23 -100 -27 -593 -3 -566 -3 -570 62 -658 23 -32 53
-56 90 -74 49 -24 65 -27 133 -23 70 3 84 7 134 40 39 27 64 53 84 90 29 52
29 55 37 283 5 127 6 340 3 475 -6 259 0 320 37 394 25 49 69 90 133 124 68
36 178 38 245 5 61 -30 128 -96 154 -152 20 -44 21 -64 27 -546 4 -389 8 -509
19 -538 18 -51 83 -123 134 -149 61 -31 160 -36 218 -10 64 28 122 84 147 142
21 48 22 69 28 493 7 519 0 631 -50 777 -83 242 -265 423 -515 514 -132 47
-313 58 -457 27z M20067 4324 c-154 -28 -345 -119 -451 -214 -28 -26 -66 -59
-83 -75 -84 -73 -204 -292 -244 -445 -27 -106 -37 -326 -19 -436 37 -231 165
-454 345 -600 151 -122 311 -186 514 -205 189 -18 276 4 355 92 52 58 71 116
64 202 -6 75 -34 132 -84 177 -56 49 -95 61 -231 69 -114 8 -130 11 -198 45
-88 43 -152 110 -197 203 -126 264 21 572 308 644 26 7 81 10 130 6 154 -9
282 -95 351 -235 l38 -76 5 -460 c5 -404 7 -466 22 -498 28 -62 65 -103 120
-134 46 -25 63 -29 133 -29 74 0 85 3 138 35 60 36 92 75 120 148 15 37 17 94
17 493 0 414 -2 459 -20 551 -42 203 -115 341 -255 480 -223 221 -555 320
-878 262z" transform="translate(0,724) scale(0.1,-0.1)"/>
    </clipPath>
  </defs>

  <g filter="url(#dropShadow)">
    <path d="M12640 5180 c-178 -25 -308 -66 -449 -141 -128 -69 -178 -106 -290
-214 -198 -192 -313 -420 -361 -720 -8 -47 -12 -307 -13 -790 l0 -720 23 -59
c46 -120 143 -186 273 -186 109 0 204 58 255 155 26 50 27 52 33 340 4 160 7
293 8 297 1 4 238 9 529 10 526 3 527 3 577 26 105 48 165 143 165 260 0 71
-41 163 -93 209 -70 62 -85 63 -659 63 l-518 0 0 158 c0 186 10 237 75 369
120 245 406 398 678 364 173 -22 285 -78 407 -200 98 -98 147 -186 180 -317
18 -74 19 -124 22 -794 3 -709 3 -715 25 -762 45 -99 112 -154 215 -177 90
-21 212 21 274 93 71 83 69 54 69 896 0 746 0 756 -23 857 -59 267 -159 453
-342 634 -177 175 -403 292 -645 334 -109 20 -326 27 -415 15z M825 5116
c-104 -33 -186 -103 -228 -194 l-22 -47 0 -1140 0 -1140 26 -55 c33 -70 79
-116 149 -149 157 -73 355 15 405 181 13 44 15 154 15 752 0 386 4 707 9 714
9 16 49 -31 571 -672 213 -260 578 -700 673 -811 85 -99 113 -123 187 -158 56
-27 76 -32 145 -32 66 1 90 5 140 28 108 50 172 133 195 252 8 44 10 362 8
1155 l-3 1095 -24 52 c-47 105 -156 176 -271 177 -132 1 -225 -56 -282 -172
l-33 -67 4 -605 c1 -333 0 -660 -4 -728 l-7 -122 -36 47 c-20 27 -70 89 -112
139 -78 95 -129 158 -243 302 -37 48 -81 101 -97 117 -16 17 -46 53 -67 81
-21 29 -60 78 -88 111 -27 33 -106 129 -175 213 -69 85 -141 172 -161 194 -19
23 -46 57 -60 76 -13 19 -46 60 -74 90 -28 30 -70 83 -94 117 -46 66 -131 142
-191 173 -75 38 -183 49 -255 26z M5699 5095 c-60 -19 -133 -84 -167 -149
l-27 -51 0 -905 0 -905 27 -85 c59 -189 124 -296 251 -417 193 -183 448 -262
750 -234 174 16 336 46 396 71 129 56 191 205 145 348 -23 70 -63 115 -136
151 -53 27 -72 31 -140 31 -43 0 -120 -9 -171 -21 -54 -12 -130 -20 -183 -21
-120 0 -192 30 -264 110 -82 92 -85 107 -85 472 l0 315 375 5 c362 5 377 6
420 27 116 57 170 140 170 257 0 86 -29 155 -84 203 -79 70 -61 67 -491 73
l-390 5 -5 255 c-6 283 -10 304 -80 384 -70 79 -206 115 -311 81z M4185 4394
c-11 -2 -45 -9 -75 -15 -334 -67 -617 -297 -753 -613 -65 -152 -81 -229 -81
-396 0 -124 4 -159 27 -242 100 -374 377 -652 752 -755 93 -26 113 -28 280
-27 179 1 181 1 300 38 215 67 396 190 525 356 393 508 245 1214 -319 1527
-110 61 -242 107 -354 122 -74 10 -259 13 -302 5z m238 -569 c138 -29 261
-125 324 -253 35 -69 38 -83 41 -176 3 -84 0 -112 -18 -166 -67 -199 -234
-320 -443 -320 -137 0 -241 45 -335 144 -131 138 -162 340 -82 515 48 104 149
198 251 234 110 39 161 44 262 22z M9694 4360 c-239 -35 -447 -227 -511 -470
-20 -77 -22 -246 -3 -335 16 -80 79 -198 140 -267 54 -60 166 -134 254 -167
80 -30 188 -41 396 -41 188 0 189 0 219 -26 41 -34 44 -93 6 -128 l-25 -23
-378 -6 c-238 -3 -391 -9 -414 -16 -57 -18 -118 -70 -152 -131 -27 -48 -31
-64 -31 -130 0 -65 5 -83 31 -130 41 -71 117 -126 197 -141 37 -6 200 -9 440
-7 l382 3 88 31 c120 43 186 86 270 174 82 85 139 185 162 281 17 76 20 255 4
331 -31 148 -142 301 -274 381 -137 81 -173 89 -455 96 -211 5 -250 9 -273 23
-54 36 -58 94 -9 126 23 15 69 18 372 22 l345 5 63 29 c172 79 214 292 87 434
-36 39 -59 55 -107 71 -58 20 -82 21 -417 20 -196 -1 -379 -5 -407 -9z M7984
4340 c-72 -13 -210 -58 -269 -87 -159 -80 -318 -220 -413 -365 -92 -142 -152
-352 -152 -533 1 -437 264 -815 661 -950 173 -59 344 -68 675 -35 300 30 330
38 395 107 49 50 70 94 76 157 11 108 -47 220 -139 267 -70 36 -119 38 -312
18 -378 -39 -508 -22 -639 87 -81 66 -120 124 -149 217 -39 129 -11 304 63
400 47 61 131 126 202 156 54 23 76 26 172 26 104 0 114 -2 176 -32 66 -33
149 -109 149 -137 0 -25 -32 -30 -226 -33 -216 -3 -238 -9 -310 -75 -31 -29
-48 -55 -59 -91 -17 -58 -19 -136 -5 -188 14 -51 73 -114 135 -144 l54 -27
233 4 c198 4 245 8 311 26 240 66 390 218 420 425 24 167 -44 370 -174 525
-98 117 -262 215 -437 263 -88 23 -349 35 -438 19z M15050 4339 c-172 -22
-374 -124 -506 -254 -140 -139 -224 -289 -277 -495 -21 -82 -22 -102 -21 -551
1 -453 2 -467 23 -514 32 -72 62 -107 121 -139 78 -43 162 -47 234 -12 74 36
101 60 134 114 l27 47 5 470 c5 454 6 472 28 529 30 80 66 131 132 183 76 60
144 83 271 93 88 6 116 12 157 35 156 85 176 311 40 442 -61 58 -187 76 -368
52z M16370 4340 c-163 -11 -306 -59 -470 -156 -207 -123 -383 -383 -436 -643
-25 -128 -16 -364 20 -486 106 -357 381 -611 746 -687 110 -23 336 -27 510 -9
261 26 298 31 348 46 146 44 222 213 158 351 -56 121 -138 168 -288 166 -48
-1 -124 -6 -170 -12 -46 -6 -150 -13 -233 -16 -180 -8 -244 5 -350 69 -86 52
-142 119 -184 222 -31 75 -33 84 -29 181 3 94 6 107 42 177 52 103 90 144 178
195 156 89 344 88 470 -4 50 -36 106 -109 94 -122 -4 -4 -101 -10 -214 -13
-158 -4 -216 -9 -244 -22 -105 -45 -164 -135 -162 -247 1 -78 19 -123 71 -180
57 -64 107 -83 238 -88 153 -6 364 13 463 42 269 78 426 278 409 521 -14 195
-126 405 -278 522 -199 153 -411 212 -689 193z M18115 4321 c-309 -67 -550
-302 -636 -621 -23 -82 -23 -100 -27 -593 -3 -566 -3 -570 62 -658 23 -32 53
-56 90 -74 49 -24 65 -27 133 -23 70 3 84 7 134 40 39 27 64 53 84 90 29 52
29 55 37 283 5 127 6 340 3 475 -6 259 0 320 37 394 25 49 69 90 133 124 68
36 178 38 245 5 61 -30 128 -96 154 -152 20 -44 21 -64 27 -546 4 -389 8 -509
19 -538 18 -51 83 -123 134 -149 61 -31 160 -36 218 -10 64 28 122 84 147 142
21 48 22 69 28 493 7 519 0 631 -50 777 -83 242 -265 423 -515 514 -132 47
-313 58 -457 27z M20067 4324 c-154 -28 -345 -119 -451 -214 -28 -26 -66 -59
-83 -75 -84 -73 -204 -292 -244 -445 -27 -106 -37 -326 -19 -436 37 -231 165
-454 345 -600 151 -122 311 -186 514 -205 189 -18 276 4 355 92 52 58 71 116
64 202 -6 75 -34 132 -84 177 -56 49 -95 61 -231 69 -114 8 -130 11 -198 45
-88 43 -152 110 -197 203 -126 264 21 572 308 644 26 7 81 10 130 6 154 -9
282 -95 351 -235 l38 -76 5 -460 c5 -404 7 -466 22 -498 28 -62 65 -103 120
-134 46 -25 63 -29 133 -29 74 0 85 3 138 35 60 36 92 75 120 148 15 37 17 94
17 493 0 414 -2 459 -20 551 -42 203 -115 341 -255 480 -223 221 -555 320
-878 262z" transform="translate(0,724) scale(0.1,-0.1)" fill="url(#bubbleGradient)"/>
  </g>

  <g clip-path="url(#letterClip)">
    <rect x="0" y="0" width="2172" height="724" fill="url(#shadeOverlay)"/>
  </g>

  <g clip-path="url(#letterClip)" filter="url(#glossBlur)" opacity="0.65">
    <ellipse cx="150" cy="185" rx="90" ry="42" fill="#FFFFFF"/>
    <ellipse cx="470" cy="175" rx="230" ry="34" fill="#FFFFFF"/>
    <ellipse cx="850" cy="175" rx="230" ry="30" fill="#FFFFFF"/>
    <ellipse cx="1310" cy="175" rx="130" ry="40" fill="#FFFFFF"/>
    <ellipse cx="1650" cy="175" rx="230" ry="30" fill="#FFFFFF"/>
    <ellipse cx="1980" cy="175" rx="150" ry="30" fill="#FFFFFF"/>
  </g>
</svg>